<svg xmlns="http://www.w3.org/2000/svg" width="24" height="25" viewBox="0 0 24 25" fill="none">
  <path d="M21.5992 10.9393H12.1992V14.6393H17.6992C17.5992 15.5393 16.9992 16.9393 15.6992 17.8393C14.8992 18.4393 13.6992 18.8393 12.1992 18.8393C9.59922 18.8393 7.29922 17.1393 6.49922 14.6393C6.29922 14.0393 6.19922 13.3393 6.19922 12.6393C6.19922 11.9393 6.29922 11.2393 6.49922 10.6393C6.59922 10.4393 6.59922 10.2393 6.69922 10.1393C7.59922 8.03926 9.69922 6.53926 12.1992 6.53926C14.0992 6.53926 15.2992 7.33926 16.0992 8.03926L18.8992 5.23926C17.1992 3.73926 14.8992 2.73926 12.1992 2.73926C8.29922 2.73926 4.89922 4.93926 3.29922 8.23926C2.59922 9.63926 2.19922 11.1393 2.19922 12.7393C2.19922 14.3393 2.59922 15.8393 3.29922 17.2393C4.89922 20.5393 8.29922 22.7393 12.1992 22.7393C14.8992 22.7393 17.1992 21.8393 18.7992 20.3393C20.6992 18.6393 21.7992 16.0393 21.7992 12.9393C21.7992 12.1393 21.6992 11.5393 21.5992 10.9393Z" stroke="#595959" stroke-width="1.5" stroke-miterlimit="10" stroke-linecap="round" stroke-linejoin="round"/>
</svg>